<svg xmlns="http://www.w3.org/2000/svg" viewBox="0 0 32 32" width="32" height="32">
  <!-- Background circle -->
  <circle cx="16" cy="16" r="15" fill="#1a1a2e" stroke="#5a5aff" stroke-width="1.2"/>

  <!-- Controller body -->
  <path d="M5 14 Q5 11 8 11 L13 11 L13 10 Q13 9 14 9 L18 9 Q19 9 19 10 L19 11 L24 11 Q27 11 27 14 L27 19 Q27 22 25 23 L22 23 Q21 23 20 22 L19 21 L13 21 L12 22 Q11 23 10 23 L7 23 Q5 22 5 19 Z"
        fill="#2a2a4a" stroke="#6060cc" stroke-width="0.8"/>

  <!-- D-pad vertical -->
  <rect x="9.5" y="13.5" width="2.5" height="6" rx="0.5" fill="#4a4a8a"/>
  <!-- D-pad horizontal -->
  <rect x="8" y="15" width="5.5" height="2.5" rx="0.5" fill="#4a4a8a"/>

  <!-- Right buttons (ABXY) -->
  <!-- A (bottom) - green -->
  <circle cx="22" cy="19" r="1.4" fill="#107C10"/>
  <!-- B (right) - red -->
  <circle cx="24" cy="17" r="1.4" fill="#E81123"/>
  <!-- X (left) - blue -->
  <circle cx="20" cy="17" r="1.4" fill="#0078D7"/>
  <!-- Y (top) - yellow -->
  <circle cx="22" cy="15" r="1.4" fill="#FFC300"/>

  <!-- Center buttons (small) -->
  <rect x="14.5" y="15.5" width="1.3" height="1" rx="0.3" fill="#5a5aaa"/>
  <rect x="16.5" y="15.5" width="1.3" height="1" rx="0.3" fill="#5a5aaa"/>

  <!-- Left shoulder bump -->
  <path d="M6 13 Q8 11 11 11.5 L11 12.5 Q8.5 12 7 13.5 Z" fill="#3a3a6a"/>
  <!-- Right shoulder bump -->
  <path d="M26 13 Q24 11 21 11.5 L21 12.5 Q23.5 12 25 13.5 Z" fill="#3a3a6a"/>
</svg>
